<?xml version="1.0" encoding="utf-8"?>
<svg version="1.1" xmlns:xlink="http://www.w3.org/1999/xlink" width="26px" height="26px" xmlns="http://www.w3.org/2000/svg">
  <g transform="matrix(1 0 0 1 -94 -493 )">
    <path d="M 107 493  C 114.28 493  120 498.72  120 506  C 120 513.28  114.28 519  107 519  C 99.72 519  94 513.28  94 506  C 94 498.72  99.72 493  107 493  Z " fill-rule="nonzero" fill="#ffffff" stroke="none" />
    <path d="M 107 493.5  C 114 493.5  119.5 499  119.5 506  C 119.5 513  114 518.5  107 518.5  C 100 518.5  94.5 513  94.5 506  C 94.5 499  100 493.5  107 493.5  Z " stroke-width="1" stroke="#797979" fill="none" />
  </g>
</svg>