<?xml version="1.0" encoding="utf-8"?>
<svg version="1.1" xmlns:xlink="http://www.w3.org/1999/xlink" width="18px" height="23px" xmlns="http://www.w3.org/2000/svg">
  <g transform="matrix(1 0 0 1 -429 -59 )">
    <path d="M 17.6907216494845 10.9699398797595  C 17.8969072164948 11.123580494322  18 11.3002672010688  18 11.5  C 18 11.6997327989312  17.8969072164948 11.876419505678  17.6907216494845 12.0300601202405  L 3.27835051546392 22.7695390781563  C 3.07216494845361 22.9231796927188  2.83505154639175 23  2.56701030927835 23  C 2.29896907216495 23  2.06185567010309 22.9231796927188  1.85567010309278 22.7695390781563  L 0.309278350515464 21.6172344689379  C 0.103092783505155 21.4635938543754  0 21.2869071476286  0 21.0871743486974  C 0 20.8874415497662  0.103092783505155 20.7107548430194  0.309278350515464 20.5571142284569  L 12.4639175257732 11.5  L 0.309278350515464 2.44288577154309  C 0.103092783505155 2.28924515698063  0 2.1125584502338  0 1.91282565130261  C 0 1.71309285237141  0.103092783505155 1.53640614562458  0.309278350515464 1.38276553106212  L 1.85567010309278 0.230460921843688  C 2.06185567010309 0.0768203072812284  2.29896907216495 0  2.56701030927835 0  C 2.83505154639175 0  3.07216494845361 0.0768203072812284  3.27835051546392 0.230460921843688  L 17.6907216494845 10.9699398797595  Z " fill-rule="nonzero" fill="#333333" stroke="none" transform="matrix(1 0 0 1 429 59 )" />
  </g>
</svg>