<?xml version="1.0" encoding="utf-8"?>
<svg version="1.1" xmlns:xlink="http://www.w3.org/1999/xlink" width="25px" height="22px" xmlns="http://www.w3.org/2000/svg">
  <g transform="matrix(1 0 0 1 -414 -7 )">
    <path d="M 9.85026041666667 10.0018028846154  C 10.5837673611111 9.25701121794872  11.4670138888889 8.88461538461538  12.5 8.88461538461539  C 13.5329861111111 8.88461538461538  14.4162326388889 9.25701121794872  15.1497395833333 10.0018028846154  C 15.8832465277778 10.7465945512821  16.25 11.6434294871795  16.25 12.6923076923077  C 16.25 13.7411858974359  15.8832465277778 14.6380208333333  15.1497395833333 15.3828125  C 14.4162326388889 16.1276041666667  13.5329861111111 16.5  12.5 16.5  C 11.4670138888889 16.5  10.5837673611111 16.1276041666667  9.85026041666667 15.3828125  C 9.11675347222222 14.6380208333333  8.75 13.7411858974359  8.75 12.6923076923077  C 8.75 11.6434294871795  9.11675347222222 10.7465945512821  9.85026041666667 10.0018028846154  Z M 18.75 3.38461538461539  L 21.6666666666667 3.38461538461539  C 22.5868055555556 3.38461538461539  23.3723958333333 3.71514423076923  24.0234375 4.37620192307692  C 24.6744791666667 5.03725961538462  25 5.8349358974359  25 6.76923076923077  L 25 18.6153846153846  C 25 19.5496794871795  24.6744791666667 20.3473557692308  24.0234375 21.0084134615385  C 23.3723958333333 21.6694711538462  22.5868055555556 22  21.6666666666667 22  L 3.33333333333333 22  C 2.41319444444444 22  1.62760416666667 21.6694711538462  0.9765625 21.0084134615385  C 0.325520833333333 20.3473557692308  0 19.5496794871795  0 18.6153846153846  L 0 6.76923076923077  C 0 5.8349358974359  0.325520833333333 5.03725961538462  0.9765625 4.37620192307692  C 1.62760416666667 3.71514423076923  2.41319444444444 3.38461538461539  3.33333333333333 3.38461538461539  L 6.25 3.38461538461539  L 6.9140625 1.58653846153846  C 7.07899305555556 1.15464743589744  7.38064236111111 0.782251602564101  7.81901041666667 0.469350961538461  C 8.25737847222222 0.156450320512823  8.70659722222222 0  9.16666666666667 0  L 15.8333333333333 0  C 16.2934027777778 0  16.7426215277778 0.156450320512823  17.1809895833333 0.469350961538461  C 17.6193576388889 0.782251602564101  17.9210069444444 1.15464743589744  18.0859375 1.58653846153846  L 18.75 3.38461538461539  Z M 8.37890625 16.8768028846154  C 9.52039930555556 18.0358573717949  10.8940972222222 18.6153846153846  12.5 18.6153846153846  C 14.1059027777778 18.6153846153846  15.4796006944444 18.0358573717949  16.62109375 16.8768028846154  C 17.7625868055556 15.7177483974359  18.3333333333333 14.3229166666667  18.3333333333333 12.6923076923077  C 18.3333333333333 11.0616987179487  17.7625868055556 9.66686698717949  16.62109375 8.5078125  C 15.4796006944444 7.34875801282051  14.1059027777778 6.76923076923077  12.5 6.76923076923077  C 10.8940972222222 6.76923076923077  9.52039930555556 7.34875801282051  8.37890625 8.5078125  C 7.23741319444444 9.66686698717949  6.66666666666667 11.0616987179487  6.66666666666667 12.6923076923077  C 6.66666666666667 14.3229166666667  7.23741319444444 15.7177483974359  8.37890625 16.8768028846154  Z " fill-rule="nonzero" fill="#cccccc" stroke="none" transform="matrix(1 0 0 1 414 7 )" />
  </g>
</svg>